<svg width="1777" height="328" viewBox="0 0 1777 328" fill="none" xmlns="http://www.w3.org/2000/svg">
<g style="mix-blend-mode:plus-lighter">
<path fill-rule="evenodd" clip-rule="evenodd" d="M1.77882 137.539C5.82179 117.766 10.5406 99.9416 20.0015 81.9377C48.0953 28.4729 105.568 -0.0779651 164.439 0.000159905C196.736 0.0431287 227.146 8.82447 253.935 26.9534C260.638 31.4924 266.552 36.8985 272.212 42.6563C273.673 44.1407 276.88 46.5197 276.869 48.633C270.048 58.9104 258.544 66.8714 250.404 76.1761C242.271 70.3362 236.322 61.7815 227.943 55.9847C204.451 39.7347 172.822 33.1955 144.626 37.3518C120.373 40.926 97.7671 50.5236 79.3764 66.9572C26.8374 113.914 26.2398 203.446 73.3062 254.199C126.56 311.629 232.041 298.461 263.447 225.223C268.06 214.461 271.365 203.336 271.169 191.539C245.408 189.582 219.15 190.883 193.326 190.895C183.31 190.903 170.169 193.309 160.587 190.598C160.537 178.903 160.669 167.203 160.486 155.508C177.126 151.961 196.47 154.836 213.459 154.875C245.259 154.942 277.123 154.445 308.912 155.133C310.951 157.469 310.216 162.449 310.209 165.567C310.189 174.465 310.08 183.328 309.302 192.196C305.544 235.285 284.72 274.977 249.193 300.11C179.919 349.106 76.9311 328.422 28.9936 259.981C4.52874 225.055 -4.1079 179.492 1.77882 137.539Z" fill="#8FA8E5"/>
<path fill-rule="evenodd" clip-rule="evenodd" d="M357.392 6.69966C357.384 5.96919 357.38 5.24264 357.376 4.51217C367.244 -0.085486 384.447 3.3442 395.423 2.94576C398.216 11.1372 396.083 23.0745 396.091 31.7191C396.115 52.5472 396.048 73.3793 395.997 94.2074C395.872 144.981 395.568 195.754 395.486 246.528C395.447 270.856 393.525 296.153 395.576 320.364C382.81 320.52 370.056 319.485 357.314 320.676C354.111 312.657 356.544 300.075 356.607 291.473C356.763 269.985 356.728 248.497 356.771 227.004C356.865 178.825 357.037 130.645 357.083 82.4612C357.107 57.4612 355.181 31.5981 357.392 6.69966Z" fill="#8FA8E5"/>
<path fill-rule="evenodd" clip-rule="evenodd" d="M439.279 246.957C440.626 236.985 442.829 227.602 447.759 218.715C468.009 182.204 515.665 175.313 553.212 181.723C567.865 184.227 579.478 191.598 593.204 195.77C592.583 177.329 595.927 158.274 582.595 142.875C557.224 113.567 496.083 123.297 477.443 155.696C467.177 149.079 458.947 138.477 449.029 131.161C459.607 118.692 471.497 108.629 486.341 101.5C533.08 79.0512 605.189 90.0355 626.208 142.649C634.33 162.977 632.24 186.008 632.119 207.45C631.908 244.938 630.329 283.078 632.376 320.489C620.193 319.981 607.685 319.934 595.505 320.563C593.443 318.083 594.013 314.114 594.103 310.946C594.302 303.653 595.115 296.403 594.724 289.11C581.142 303.582 569.579 316.539 549.755 322.477C505.259 335.805 452.978 319.371 440.751 270.957C438.783 263.164 438.529 254.926 439.279 246.957ZM480.189 244.864C473.064 273.399 496.427 294.129 523.611 294.215C548.962 294.29 571.911 281.153 584.63 259.231C589.388 251.036 597.759 234.516 592.982 224.77C585.896 219.301 576.673 216.606 568.122 214.356C543.509 207.883 510.896 206.633 491.232 225.786C485.81 231.067 483.161 238.118 480.189 244.864Z" fill="#93A8DC"/>
<path fill-rule="evenodd" clip-rule="evenodd" d="M670.099 269.637C681.931 263.637 693.931 256.278 706.388 251.735C714.884 280.488 744.353 296.012 773.134 292.066C791.068 289.605 811.357 279.695 810.615 258.809C809.771 235.055 783.232 229.492 764.841 224.883C731.478 216.524 685.74 208.191 679.888 166.883C679.029 160.801 678.791 154.766 679.736 148.672C683.771 122.617 704.83 103.774 729.037 95.9376C769.658 82.7813 828.294 94.6445 847.298 137.18C846.22 139.152 840.384 140.426 838.197 141.57C829.513 146.106 821.38 151.047 813.017 156.102C809.337 150.676 806.943 145.223 802.165 140.438C788.841 127.098 769.708 124.625 751.751 126.688C735.701 128.527 715.998 140.895 719.412 159.492C723.33 180.828 752.916 184.938 770.048 188.973C802.841 196.699 842.548 207.035 849.939 245.473C851.212 252.109 851.326 259.25 850.662 265.965C847.294 300.074 816.834 320.602 785.134 325.164C739.091 331.793 688.326 316.332 670.099 269.637Z" fill="#4E72D5"/>
<path fill-rule="evenodd" clip-rule="evenodd" d="M882.345 270.086C893.244 263.731 904.607 257.406 916.513 253.156C919.826 255.461 923.025 265.633 925.759 269.387C933.443 279.942 944.994 287.625 957.677 290.868C972.255 294.594 989.49 293.977 1002.85 286.496C1017.42 278.325 1026.31 259.942 1016.2 244.75C1007.34 231.422 987.431 227.762 972.9 224.469C938.173 216.602 891.818 204.715 889.369 161.196C888.884 152.547 889.998 144.145 893.236 136.102C910.81 92.4924 972.884 82.1527 1012.55 98.6176C1027.1 104.657 1040.47 113.274 1049.73 126.336C1051.48 128.797 1057.9 135.66 1056.15 138.235C1044.51 142.606 1034.73 151.321 1023.52 156.457C1014.21 131.008 981.9 122.743 958.037 127.68C942.849 130.825 926.498 143.125 929.455 160.403C932.904 180.574 960.505 184.801 976.611 188.676C1009.95 196.696 1052.75 206.043 1059.57 246.039C1060.62 252.215 1060.98 258.555 1060.33 264.793C1053.69 328.602 967.115 339.711 920.533 314.508C901.963 304.461 890.326 289.7 881.119 271.157C881.529 270.801 881.939 270.442 882.345 270.086Z" fill="#668BE3"/>
<path fill-rule="evenodd" clip-rule="evenodd" d="M1090.25 98.8089C1103.55 97.5862 1117.04 99.3364 1130.31 97.895C1131.93 77.4731 1130.36 56.5629 1131.33 36.059C1143.88 36.7192 1156.69 34.9846 1169.21 36.1565C1166.65 56.5706 1169.85 78.1957 1169.14 98.7738C1172.31 100.309 1178.08 98.9497 1181.6 98.934C1191.38 98.8872 1201.16 99.1137 1210.93 99.1176C1214.67 99.1215 1221.02 97.7817 1224.22 99.6645C1223.66 110.692 1224.25 121.911 1224.08 132.961C1210.67 132 1197.02 132.778 1183.58 132.829C1179.77 132.84 1171.97 131.43 1169.51 134.563C1167.46 169.653 1168.91 205.278 1168.81 240.426C1168.78 253.832 1166.05 272.059 1177.14 282.133C1190.07 293.875 1207.5 286.145 1221.52 281.762C1221.53 293.34 1224.54 305.09 1226.05 316.539C1225.12 317.969 1222.49 317.879 1220.94 318.453C1214.99 320.657 1209.43 322.641 1203.07 323.383C1179.03 326.184 1153.65 320.934 1139.92 299.149C1128.5 281.024 1130.46 259.203 1130.48 238.7C1130.52 203.563 1131.6 168.153 1130.11 133.059C1127.71 131.289 1122.32 132.258 1119.3 132.246C1110.47 132.211 1098.92 134.145 1090.47 131.661C1090.09 120.704 1090.18 109.762 1090.25 98.8089Z" fill="#6B8BDC"/>
<path fill-rule="evenodd" clip-rule="evenodd" d="M1269.09 28.0978C1269.89 24.1525 1271.42 19.8869 1273.74 16.5822C1291.37 -8.53105 1327.72 11.5119 1322.69 39.3987C1316.25 75.1018 1261.9 63.7541 1269.09 28.0978Z" fill="#8FA8E5"/>
<path fill-rule="evenodd" clip-rule="evenodd" d="M1277.29 104.305C1277.64 102.098 1277.52 103.395 1277.43 100.399C1279.89 98.5314 1284.05 99.3164 1287.1 99.3672C1293.6 99.4765 1300.11 99.4922 1306.61 99.4883C1308.97 99.4844 1313.99 98.4181 1315.67 100.125C1314.6 155.399 1315.37 210.777 1315.33 266.062C1315.32 279.734 1315.32 293.406 1315.28 307.082C1315.28 309.777 1316.88 318.902 1314.78 320.645C1302.25 321.59 1289.7 320.375 1277.15 320.727C1275.62 299.941 1276.79 278.774 1276.8 257.918C1276.8 206.762 1278.21 155.418 1277.29 104.305Z" fill="#8FA8E5"/>
<path fill-rule="evenodd" clip-rule="evenodd" d="M1363.08 190.25C1366.92 173.93 1371.19 159.02 1380.13 144.575C1399.35 113.496 1432.72 94.6996 1468.89 92.1332C1500.56 89.8871 1532.11 101.063 1553.83 124.453C1559.77 130.852 1568.71 141.497 1570.24 150.317C1563.07 155.024 1554.32 157.707 1546.55 161.286C1543.86 162.52 1540.61 165.485 1537.72 165.719C1531.71 155.625 1525.4 145.344 1515.4 138.688C1507.85 133.668 1499.31 130.188 1490.36 128.754C1480.34 127.153 1468.96 126.543 1459.05 129.118C1419.73 139.317 1396.29 179.848 1400.2 219.223C1402.39 241.34 1412.23 262.969 1430.22 276.637C1465.3 303.286 1518.45 292.657 1538.75 253.262C1548.32 259.438 1562.25 262.485 1570.45 270.2C1563.13 283.497 1554.04 296.344 1541.87 305.653C1530.55 314.309 1516.1 320.633 1502.19 323.579C1477.33 328.844 1450.31 327.196 1426.95 316.641C1379.34 295.133 1354.79 240.653 1363.08 190.25Z" fill="#A0B6ED"/>
<path fill-rule="evenodd" clip-rule="evenodd" d="M1599.43 267.813C1610.36 263.285 1620.47 256.887 1631.41 252.516C1640.75 280.211 1669.63 294.738 1697.39 292.899C1716.08 291.656 1737.01 281.758 1736.85 260.465C1736.67 235.742 1710.76 229.938 1691.24 225.188C1657.29 216.93 1611.49 207.946 1605.56 166.145C1604.69 160 1605.34 153.914 1606.42 147.848C1616.35 92.2893 1692.03 81.3986 1734.94 102.613C1748.65 109.395 1767.77 122.848 1771.73 138.801C1762.04 146.227 1749.38 148.992 1739.88 156.696C1737.01 155.469 1733.56 147.75 1731.18 145.024C1725.45 138.442 1718.42 132.895 1710.1 130.047C1692.27 123.949 1671.13 125.918 1655.24 136.059C1644.22 143.082 1639.94 159.922 1649.24 170.059C1660.33 182.133 1678.27 185.281 1693.46 188.824C1729.2 197.168 1773.97 208.5 1776.52 252.637C1776.94 259.957 1776.79 267.965 1774.82 275.067C1759.93 328.879 1685.02 336.942 1641.5 316.809C1626.56 309.895 1613.17 297.547 1604.42 283.641C1601.55 279.074 1600.03 273.84 1597.2 269.317C1597.94 268.813 1598.69 268.313 1599.43 267.813Z" fill="#B3C4EC"/>
</g>
</svg>
